<svg xmlns="http://www.w3.org/2000/svg" xmlns:xlink="http://www.w3.org/1999/xlink" viewBox="0 0 1448.587 265.645"><defs><style>.cls-1{fill:url(#linear-gradient);}.cls-2{fill:none;stroke:#323941;stroke-miterlimit:10;stroke-width:10px;}.cls-3{fill:#323941;}.cls-4{fill:#29303d;}</style><linearGradient id="linear-gradient" x1="-286.814" y1="890.016" x2="-37.366" y2="841.153" gradientTransform="translate(-8.059 -739.101) rotate(-18.663)" gradientUnits="userSpaceOnUse"><stop offset="0" stop-color="#1ba3e6"/><stop offset="1" stop-color="#1ae670"/></linearGradient></defs><g id="Layer_2" data-name="Layer 2"><g id="Layer_1-2" data-name="Layer 1"><g id="Layer_2-2" data-name="Layer 2"><g id="Layer_1-2-2" data-name="Layer 1-2"><polygon class="cls-1" points="115.914 5.773 5.614 68.773 5.014 195.873 114.814 259.873 225.114 196.873 225.714 69.773 115.914 5.773"/><polygon class="cls-2" points="115.914 5.773 5.614 68.773 5.014 195.873 114.814 259.873 225.114 196.873 225.714 69.773 115.914 5.773"/><path class="cls-3" d="M176.814,155.873a63,63,0,0,1-121.9,0Z"/><circle class="cls-3" cx="175.914" cy="106.873" r="17"/><circle class="cls-3" cx="55.814" cy="105.873" r="17"/></g></g><path class="cls-4" d="M253.212,88.855h27.44q11.535,0,17.641,5.6t6.1,15.232q0,6.72-3.3,10.7a18.687,18.687,0,0,1-9.464,5.768v.672q7.278,1.793,11.256,6.272t3.975,12.432q0,9.858-6.216,15.68t-17.416,5.824H253.212Zm22.736,33.153q5.935,0,8.624-1.96t2.689-7.112v-3.36q0-5.149-2.689-7.056t-8.624-1.9h-6.384v21.392Zm2.128,33.264q6.048,0,8.849-2.016t2.8-7.392v-3.248q0-5.376-2.8-7.392t-8.849-2.016h-8.512v22.064Z"/><path class="cls-4" d="M346.957,168.377q-14.562,0-22.065-8.065t-7.5-21.952a38.633,38.633,0,0,1,1.961-12.712,27.238,27.238,0,0,1,5.6-9.632,23.716,23.716,0,0,1,8.848-6.048,31.435,31.435,0,0,1,11.7-2.072,31,31,0,0,1,11.647,2.072,24.281,24.281,0,0,1,8.737,5.88,26.349,26.349,0,0,1,5.544,9.24,35.661,35.661,0,0,1,1.96,12.152v4.928H333.852v1.008a12.077,12.077,0,0,0,3.472,9.016q3.471,3.418,10.193,3.416a18.648,18.648,0,0,0,8.847-1.96,20.918,20.918,0,0,0,6.385-5.208l8.96,9.745a27.975,27.975,0,0,1-9.408,7.167Q356.251,168.376,346.957,168.377Zm-1.345-48.609a11.369,11.369,0,0,0-8.568,3.3,12.275,12.275,0,0,0-3.192,8.9v.9h23.3v-.9q0-5.712-3.08-8.96A11.1,11.1,0,0,0,345.612,119.768Z"/><path class="cls-4" d="M386.267,167.032V109.24h16.577v10.528h.672a24.6,24.6,0,0,1,2.463-4.592,16.774,16.774,0,0,1,3.529-3.752,16.5,16.5,0,0,1,4.816-2.576,18.912,18.912,0,0,1,6.216-.952,20.193,20.193,0,0,1,7.616,1.4,15.563,15.563,0,0,1,5.936,4.2,20.325,20.325,0,0,1,3.864,6.832,28.31,28.31,0,0,1,1.4,9.3v37.408H422.78V131.864q0-11.2-9.744-11.2a14.194,14.194,0,0,0-3.752.5,10.01,10.01,0,0,0-3.305,1.568,7.452,7.452,0,0,0-3.135,6.328v37.968Z"/><path class="cls-4" d="M456.491,176.44h22.177V122.232h-22.4V109.24h38.977v63.5a16.916,16.916,0,0,1-4.368,11.984q-4.368,4.706-13.216,4.7H456.491Zm30.465-74.592q-5.6,0-7.784-2.3a7.751,7.751,0,0,1-2.184-5.544V90.76a7.7,7.7,0,0,1,2.184-5.6q2.184-2.239,7.784-2.241,5.486,0,7.728,2.241a7.6,7.6,0,0,1,2.24,5.6v3.248a7.649,7.649,0,0,1-2.24,5.544Q492.442,101.849,486.956,101.848Z"/><path class="cls-4" d="M567.933,167.032a12.461,12.461,0,0,1-8.289-2.632,11.033,11.033,0,0,1-3.7-7.559h-.559a14.192,14.192,0,0,1-6.217,8.624,21.016,21.016,0,0,1-11.368,2.912q-8.4,0-13.5-4.536t-5.1-12.713q0-9.072,6.608-13.44T545.2,133.32h9.3v-2.912q0-5.149-2.408-7.784t-8.12-2.632a15.956,15.956,0,0,0-8.512,2.016,19.727,19.727,0,0,0-5.6,5.264l-9.071-8.064a21.742,21.742,0,0,1,9.128-8.12q6.216-3.192,15.96-3.192,11.869,0,18.536,5.432t6.664,16.408v25.312h6.384v11.984Zm-23.857-9.519a12.517,12.517,0,0,0,7.392-2.128,7.066,7.066,0,0,0,3.024-6.16V142.28h-8.848q-10.192,0-10.192,6.832v2.24a5.169,5.169,0,0,0,2.352,4.592A11.131,11.131,0,0,0,544.076,157.513Z"/><path class="cls-4" d="M583.947,167.032V109.24h13.328v8.512h.784a20.273,20.273,0,0,1,3.864-6.944,8.9,8.9,0,0,1,7.112-2.912q8.4,0,10.305,9.856h.672a21.753,21.753,0,0,1,1.679-3.808,12.725,12.725,0,0,1,2.464-3.136,10.85,10.85,0,0,1,3.473-2.128,12.951,12.951,0,0,1,4.7-.784q12.095,0,12.1,17.808v41.328H631.1V127.384q0-4.032-1.4-5.656a4.581,4.581,0,0,0-3.64-1.624,5.168,5.168,0,0,0-3.639,1.4,5.605,5.605,0,0,0-1.513,4.312v41.216h-13.44V127.384q0-4.032-1.287-5.656a4.265,4.265,0,0,0-3.529-1.624,5.133,5.133,0,0,0-5.376,5.712v41.216Z"/><path class="cls-4" d="M658.315,154.04h18.369V122.232H658.315V109.24H693.26v44.8h17.024v12.992H658.315Zm26.657-52.192q-5.6,0-7.785-2.3A7.75,7.75,0,0,1,675,94.008V90.76a7.7,7.7,0,0,1,2.183-5.6q2.184-2.239,7.785-2.241t7.784,2.241a7.7,7.7,0,0,1,2.183,5.6v3.248a7.75,7.75,0,0,1-2.183,5.544Q690.572,101.849,684.972,101.848Z"/><path class="cls-4" d="M722.267,167.032V109.24h16.577v10.528h.672a24.6,24.6,0,0,1,2.463-4.592,16.774,16.774,0,0,1,3.529-3.752,16.5,16.5,0,0,1,4.816-2.576,18.912,18.912,0,0,1,6.216-.952,20.193,20.193,0,0,1,7.616,1.4,15.563,15.563,0,0,1,5.936,4.2,20.325,20.325,0,0,1,3.864,6.832,28.31,28.31,0,0,1,1.4,9.3v37.408H758.78V131.864q0-11.2-9.744-11.2a14.194,14.194,0,0,0-3.752.5,10.01,10.01,0,0,0-3.3,1.568,7.452,7.452,0,0,0-3.135,6.328v37.968Z"/><path class="cls-4" d="M807.274,167.032H790.7V88.855h30.241a28.059,28.059,0,0,1,10.192,1.737,20.437,20.437,0,0,1,7.56,4.984,21.174,21.174,0,0,1,4.648,7.84,31.776,31.776,0,0,1,1.568,10.3,27.009,27.009,0,0,1-3.584,14.224,17.026,17.026,0,0,1-10.192,7.84l15.344,31.248H828.107L815,138.024h-7.729Zm9.633-42q5.935,0,8.232-2.24t2.3-7.392v-3.36q0-5.151-2.3-7.392t-8.232-2.24h-9.633v22.624Z"/><path class="cls-4" d="M892.731,156.5h-.672a20.605,20.605,0,0,1-5.992,8.4q-4.089,3.471-11.032,3.473a20.178,20.178,0,0,1-7.616-1.4,15.512,15.512,0,0,1-5.937-4.2,20.244,20.244,0,0,1-3.863-6.832,28.248,28.248,0,0,1-1.4-9.3V109.24H872.8v35.168q0,11.2,9.744,11.2a14.2,14.2,0,0,0,3.752-.5,9.372,9.372,0,0,0,3.248-1.568,8.669,8.669,0,0,0,2.3-2.632,7.323,7.323,0,0,0,.9-3.7V109.24h16.577v57.792H892.731Z"/><path class="cls-4" d="M949.516,168.377a44.045,44.045,0,0,1-16.745-2.912,23.7,23.7,0,0,1-10.7-7.952l9.3-8.624a24.1,24.1,0,0,0,7.9,5.767,24.651,24.651,0,0,0,10.36,2.072,16.415,16.415,0,0,0,7.728-1.511,4.956,4.956,0,0,0,2.8-4.649,3.484,3.484,0,0,0-1.9-3.416,19.179,19.179,0,0,0-5.265-1.511l-9.3-1.456a38.514,38.514,0,0,1-7.28-1.737,18.984,18.984,0,0,1-5.824-3.192,14.858,14.858,0,0,1-3.92-4.928,15.619,15.619,0,0,1-1.456-7.056,16.726,16.726,0,0,1,6.944-14.224q6.944-5.151,19.488-5.152a40.67,40.67,0,0,1,14.5,2.3,22.968,22.968,0,0,1,9.577,6.552l-8.289,9.408a21.107,21.107,0,0,0-6.608-4.7,22.677,22.677,0,0,0-9.744-1.9q-9.633,0-9.632,5.824a3.574,3.574,0,0,0,1.9,3.528,19.031,19.031,0,0,0,5.264,1.512l9.185,1.456a38.629,38.629,0,0,1,7.28,1.736,19.805,19.805,0,0,1,5.88,3.192,14.593,14.593,0,0,1,3.975,4.928,15.663,15.663,0,0,1,1.456,7.056,16.98,16.98,0,0,1-7,14.336Q962.394,168.378,949.516,168.377Z"/><path class="cls-4" d="M1016.716,168.377a44.036,44.036,0,0,1-16.744-2.912,23.694,23.694,0,0,1-10.7-7.952l9.3-8.624a24.1,24.1,0,0,0,7.9,5.767,24.643,24.643,0,0,0,10.359,2.072,16.422,16.422,0,0,0,7.729-1.511,4.957,4.957,0,0,0,2.8-4.649,3.482,3.482,0,0,0-1.9-3.416,19.158,19.158,0,0,0-5.265-1.511l-9.295-1.456a38.506,38.506,0,0,1-7.281-1.737,19,19,0,0,1-5.824-3.192,14.858,14.858,0,0,1-3.92-4.928,15.619,15.619,0,0,1-1.456-7.056,16.728,16.728,0,0,1,6.944-14.224q6.944-5.151,19.489-5.152a40.678,40.678,0,0,1,14.5,2.3,22.97,22.97,0,0,1,9.576,6.552l-8.288,9.408a21.124,21.124,0,0,0-6.609-4.7,22.677,22.677,0,0,0-9.744-1.9q-9.633,0-9.632,5.824a3.573,3.573,0,0,0,1.905,3.528,19.012,19.012,0,0,0,5.263,1.512l9.185,1.456a38.629,38.629,0,0,1,7.28,1.736,19.805,19.805,0,0,1,5.88,3.192,14.6,14.6,0,0,1,3.976,4.928,15.676,15.676,0,0,1,1.456,7.056,16.98,16.98,0,0,1-7,14.336Q1029.6,168.378,1016.716,168.377Z"/><path class="cls-4" d="M1086.155,168.377q-14.562,0-22.064-8.065t-7.5-21.952a38.633,38.633,0,0,1,1.961-12.712,27.253,27.253,0,0,1,5.6-9.632,23.716,23.716,0,0,1,8.848-6.048A31.439,31.439,0,0,1,1084.7,107.9a31.006,31.006,0,0,1,11.648,2.072,24.286,24.286,0,0,1,8.736,5.88,26.334,26.334,0,0,1,5.544,9.24,35.636,35.636,0,0,1,1.96,12.152v4.928h-39.536v1.008a12.076,12.076,0,0,0,3.471,9.016q3.471,3.418,10.193,3.416a18.645,18.645,0,0,0,8.847-1.96,20.918,20.918,0,0,0,6.385-5.208l8.96,9.745a27.975,27.975,0,0,1-9.408,7.167Q1095.451,168.376,1086.155,168.377Zm-1.345-48.609a11.369,11.369,0,0,0-8.568,3.3,12.275,12.275,0,0,0-3.191,8.9v.9h23.3v-.9q0-5.712-3.08-8.96A11.1,11.1,0,0,0,1084.81,119.768Z"/><path class="cls-4" d="M1125.8,154.04h17.7v-56.9h-17.7V84.152h34.272V154.04h17.7v12.992H1125.8Z"/><path class="cls-4" d="M1193,154.04h17.7v-56.9H1193V84.152h34.272V154.04h17.7v12.992H1193Z"/><path class="cls-4" d="M1286.186,168.377q-6.273,0-9.016-2.744a8.94,8.94,0,0,1-2.744-6.553v-3.92a8.944,8.944,0,0,1,2.744-6.552q2.744-2.744,9.016-2.744t9.016,2.744a8.948,8.948,0,0,1,2.744,6.552v3.92a8.944,8.944,0,0,1-2.744,6.553Q1292.457,168.375,1286.186,168.377Z"/><path class="cls-4" d="M1323.146,167.032V109.24h13.329v8.512h.784a20.255,20.255,0,0,1,3.863-6.944,8.9,8.9,0,0,1,7.112-2.912q8.4,0,10.305,9.856h.672a21.757,21.757,0,0,1,1.68-3.808,12.721,12.721,0,0,1,2.463-3.136,10.85,10.85,0,0,1,3.473-2.128,12.951,12.951,0,0,1,4.7-.784q12.1,0,12.1,17.808v41.328H1370.3V127.384q0-4.032-1.4-5.656a4.581,4.581,0,0,0-3.639-1.624,5.169,5.169,0,0,0-3.64,1.4,5.605,5.605,0,0,0-1.513,4.312v41.216h-13.44V127.384q0-4.032-1.287-5.656a4.264,4.264,0,0,0-3.529-1.624,5.131,5.131,0,0,0-5.375,5.712v41.216Z"/><path class="cls-4" d="M1422.155,168.377q-14.562,0-22.064-8.065t-7.5-21.952a38.633,38.633,0,0,1,1.961-12.712,27.253,27.253,0,0,1,5.6-9.632,23.716,23.716,0,0,1,8.848-6.048A31.439,31.439,0,0,1,1420.7,107.9a31.006,31.006,0,0,1,11.648,2.072,24.286,24.286,0,0,1,8.736,5.88,26.334,26.334,0,0,1,5.544,9.24,35.636,35.636,0,0,1,1.96,12.152v4.928h-39.536v1.008a12.076,12.076,0,0,0,3.471,9.016q3.471,3.418,10.193,3.416a18.645,18.645,0,0,0,8.847-1.96,20.918,20.918,0,0,0,6.385-5.208l8.96,9.745a27.975,27.975,0,0,1-9.408,7.167Q1431.451,168.376,1422.155,168.377Zm-1.345-48.609a11.369,11.369,0,0,0-8.568,3.3,12.275,12.275,0,0,0-3.191,8.9v.9h23.3v-.9q0-5.712-3.08-8.96A11.1,11.1,0,0,0,1420.81,119.768Z"/></g></g></svg>