<svg xmlns="http://www.w3.org/2000/svg" xmlns:xlink="http://www.w3.org/1999/xlink" viewBox="0 0 1475.825 284.15"><defs><style>.cls-1{fill:url(#linear-gradient);}.cls-2{fill:#fff;}</style><linearGradient id="linear-gradient" x1="-0.002" y1="73.413" x2="246.695" y2="214.373" gradientTransform="matrix(1, 0, 0, -1, 0, 286)" gradientUnits="userSpaceOnUse"><stop offset="0" stop-color="#448abf"/><stop offset="0.61" stop-color="#44a6af"/><stop offset="1" stop-color="#44bba3"/></linearGradient></defs><g id="Layer_2" data-name="Layer 2"><g id="Layer_1-2" data-name="Layer 1"><g id="Layer_2-2" data-name="Layer 2"><g id="Layer_1-2-2" data-name="Layer 1-2"><path class="cls-1" d="M123.94,15,233.72,79l-.57,127.09L122.81,269.18,13,205.14l.6-127.08L123.94,15M124,0l-6.52,3.72L7.15,66.77.64,70.5.6,78,0,205.09v7.5l6.48,3.78,109.78,64,6.48,3.78,6.52-3.72L239.6,217.42l6.51-3.73v-7.5l.57-127.09V71.6l-6.48-3.78-109.78-64Z"/><path class="cls-2" d="M123.78,275,9,208,9.61,75.15,125,9.24,239.73,76.18,239.14,209ZM19.05,202.28,123.83,263.4l105.33-60.18.54-121.31L124.92,20.78,19.59,81Z"/><path class="cls-2" d="M185.83,165.09a63,63,0,0,1-121.91,0Z"/><circle class="cls-2" cx="184.88" cy="116.09" r="17"/><circle class="cls-2" cx="64.88" cy="115.09" r="17"/></g></g><path class="cls-2" d="M280.45,99.459h27.441q11.533,0,17.64,5.6t6.1,15.232q0,6.72-3.3,10.7a18.683,18.683,0,0,1-9.464,5.768v.672q7.28,1.794,11.256,6.272t3.976,12.433q0,9.855-6.216,15.679t-17.416,5.825H280.45Zm22.737,33.153q5.935,0,8.624-1.96t2.688-7.112v-3.36q0-5.15-2.688-7.056t-8.624-1.9H296.8v21.392Zm2.127,33.265q6.049,0,8.849-2.017t2.8-7.391v-3.248q0-5.376-2.8-7.393t-8.849-2.016H296.8v22.065Z"/><path class="cls-2" d="M374.2,178.98q-14.562,0-22.064-8.064t-7.5-21.951a38.635,38.635,0,0,1,1.961-12.713,27.255,27.255,0,0,1,5.6-9.632,23.7,23.7,0,0,1,8.847-6.048,31.439,31.439,0,0,1,11.7-2.072,31.006,31.006,0,0,1,11.648,2.072,24.3,24.3,0,0,1,8.736,5.88,26.334,26.334,0,0,1,5.544,9.24,35.636,35.636,0,0,1,1.96,12.152v4.928H361.091v1.008a12.077,12.077,0,0,0,3.471,9.017q3.471,3.417,10.193,3.416a18.64,18.64,0,0,0,8.848-1.961,20.922,20.922,0,0,0,6.384-5.207l8.96,9.744a27.977,27.977,0,0,1-9.408,7.168Q383.491,178.981,374.2,178.98Zm-1.344-48.608a11.371,11.371,0,0,0-8.569,3.3,12.275,12.275,0,0,0-3.191,8.9v.9h23.3v-.9q0-5.712-3.08-8.96A11.1,11.1,0,0,0,372.851,130.372Z"/><path class="cls-2" d="M413.506,177.637V119.844h16.576v10.528h.672a24.607,24.607,0,0,1,2.464-4.592,16.769,16.769,0,0,1,3.528-3.752,16.5,16.5,0,0,1,4.816-2.576,18.916,18.916,0,0,1,6.216-.952,20.2,20.2,0,0,1,7.617,1.4,15.56,15.56,0,0,1,5.935,4.2,20.291,20.291,0,0,1,3.864,6.832,28.309,28.309,0,0,1,1.4,9.3v37.409H450.019V142.468q0-11.2-9.745-11.2a14.194,14.194,0,0,0-3.752.5,10,10,0,0,0-3.3,1.568,7.45,7.45,0,0,0-3.136,6.328v37.969Z"/><path class="cls-2" d="M483.729,187.045h22.177V132.836h-22.4V119.844h38.976v63.505a16.921,16.921,0,0,1-4.368,11.984q-4.368,4.7-13.216,4.7H483.729Zm30.465-74.593q-5.6,0-7.784-2.3a7.75,7.75,0,0,1-2.183-5.544v-3.248a7.7,7.7,0,0,1,2.183-5.6q2.184-2.239,7.784-2.241,5.487,0,7.729,2.241a7.6,7.6,0,0,1,2.239,5.6v3.248a7.652,7.652,0,0,1-2.239,5.544Q519.68,112.452,514.194,112.452Z"/><path class="cls-2" d="M595.171,177.637a12.458,12.458,0,0,1-8.288-2.632,11.034,11.034,0,0,1-3.7-7.56h-.56a14.181,14.181,0,0,1-6.217,8.623,21,21,0,0,1-11.368,2.912q-8.4,0-13.5-4.535t-5.1-12.713q0-9.071,6.609-13.439t19.376-4.369h9.3v-2.912q0-5.149-2.408-7.784T571.2,130.6a15.956,15.956,0,0,0-8.512,2.016,19.711,19.711,0,0,0-5.6,5.264l-9.071-8.064a21.733,21.733,0,0,1,9.127-8.12q6.216-3.192,15.96-3.192,11.871,0,18.537,5.432t6.664,16.408v25.312h6.383v11.985Zm-23.857-9.52a12.508,12.508,0,0,0,7.392-2.129,7.06,7.06,0,0,0,3.024-6.16v-6.943h-8.847q-10.194,0-10.193,6.832v2.24a5.172,5.172,0,0,0,2.352,4.592A11.131,11.131,0,0,0,571.314,168.117Z"/><path class="cls-2" d="M611.186,177.637V119.844h13.328v8.512h.784a20.255,20.255,0,0,1,3.863-6.944,8.9,8.9,0,0,1,7.112-2.912q8.4,0,10.3,9.856h.672a21.757,21.757,0,0,1,1.68-3.808,12.725,12.725,0,0,1,2.464-3.136,10.835,10.835,0,0,1,3.472-2.128,12.951,12.951,0,0,1,4.7-.784q12.1,0,12.1,17.808v41.329H658.338V137.988q0-4.032-1.4-5.656a4.584,4.584,0,0,0-3.64-1.624,5.169,5.169,0,0,0-3.64,1.4,5.6,5.6,0,0,0-1.512,4.312v41.217H634.705V137.988q0-4.032-1.287-5.656a4.262,4.262,0,0,0-3.528-1.624,5.131,5.131,0,0,0-5.376,5.712v41.217Z"/><path class="cls-2" d="M685.554,164.645h18.368V132.836H685.554V119.844H720.5v44.8h17.024v12.992H685.554Zm26.656-52.193q-5.6,0-7.784-2.3a7.751,7.751,0,0,1-2.184-5.544v-3.248a7.7,7.7,0,0,1,2.184-5.6q2.184-2.239,7.784-2.241t7.784,2.241a7.7,7.7,0,0,1,2.184,5.6v3.248a7.751,7.751,0,0,1-2.184,5.544Q717.81,112.452,712.21,112.452Z"/><path class="cls-2" d="M749.506,177.637V119.844h16.576v10.528h.672a24.607,24.607,0,0,1,2.464-4.592,16.769,16.769,0,0,1,3.528-3.752,16.5,16.5,0,0,1,4.816-2.576,18.916,18.916,0,0,1,6.216-.952,20.2,20.2,0,0,1,7.617,1.4,15.56,15.56,0,0,1,5.935,4.2,20.291,20.291,0,0,1,3.864,6.832,28.309,28.309,0,0,1,1.4,9.3v37.409H786.019V142.468q0-11.2-9.745-11.2a14.194,14.194,0,0,0-3.752.5,10,10,0,0,0-3.3,1.568,7.45,7.45,0,0,0-3.136,6.328v37.969Z"/><path class="cls-2" d="M834.513,177.637H817.937V99.459h30.241a28.053,28.053,0,0,1,10.191,1.737,20.449,20.449,0,0,1,7.561,4.984,21.186,21.186,0,0,1,4.647,7.84,31.78,31.78,0,0,1,1.569,10.3,27.019,27.019,0,0,1-3.584,14.224,17.04,17.04,0,0,1-10.193,7.841l15.345,31.248H855.346l-13.105-29.008h-7.728Zm9.633-42q5.936,0,8.231-2.24t2.3-7.392v-3.36q0-5.151-2.3-7.392t-8.231-2.24h-9.633v22.624Z"/><path class="cls-2" d="M919.97,167.108H919.3a20.633,20.633,0,0,1-5.992,8.4q-4.091,3.47-11.033,3.471a20.166,20.166,0,0,1-7.616-1.4,15.506,15.506,0,0,1-5.936-4.2,20.248,20.248,0,0,1-3.864-6.832,28.281,28.281,0,0,1-1.4-9.3V119.844h16.576v35.168q0,11.2,9.744,11.2a14.194,14.194,0,0,0,3.752-.5,9.354,9.354,0,0,0,3.248-1.568,8.66,8.66,0,0,0,2.3-2.633,7.321,7.321,0,0,0,.9-3.7V119.844h16.576v57.793H919.97Z"/><path class="cls-2" d="M976.754,178.98a44,44,0,0,1-16.744-2.912,23.677,23.677,0,0,1-10.7-7.951l9.3-8.625a24.082,24.082,0,0,0,7.9,5.769,24.659,24.659,0,0,0,10.359,2.071,16.418,16.418,0,0,0,7.729-1.512,4.955,4.955,0,0,0,2.8-4.648,3.484,3.484,0,0,0-1.9-3.416,19.227,19.227,0,0,0-5.264-1.512l-9.3-1.455a38.525,38.525,0,0,1-7.281-1.736,19,19,0,0,1-5.824-3.193,14.861,14.861,0,0,1-3.92-4.928,15.632,15.632,0,0,1-1.456-7.056,16.727,16.727,0,0,1,6.945-14.224q6.942-5.151,19.488-5.152a40.67,40.67,0,0,1,14.5,2.3,22.97,22.97,0,0,1,9.576,6.552l-8.288,9.408a21.124,21.124,0,0,0-6.609-4.7,22.677,22.677,0,0,0-9.744-1.9q-9.633,0-9.632,5.824a3.573,3.573,0,0,0,1.905,3.528,19.012,19.012,0,0,0,5.263,1.512l9.185,1.456a38.629,38.629,0,0,1,7.28,1.736,19.815,19.815,0,0,1,5.88,3.192,14.606,14.606,0,0,1,3.976,4.928,15.681,15.681,0,0,1,1.456,7.057,16.98,16.98,0,0,1-7,14.336Q989.633,178.982,976.754,178.98Z"/><path class="cls-2" d="M1043.954,178.98a44,44,0,0,1-16.744-2.912,23.668,23.668,0,0,1-10.7-7.951l9.3-8.625a24.078,24.078,0,0,0,7.9,5.769,24.662,24.662,0,0,0,10.359,2.071,16.416,16.416,0,0,0,7.729-1.512,4.955,4.955,0,0,0,2.8-4.648,3.484,3.484,0,0,0-1.9-3.416,19.227,19.227,0,0,0-5.264-1.512l-9.3-1.455a38.514,38.514,0,0,1-7.28-1.736,18.991,18.991,0,0,1-5.825-3.193,14.861,14.861,0,0,1-3.92-4.928,15.632,15.632,0,0,1-1.456-7.056,16.727,16.727,0,0,1,6.945-14.224q6.943-5.151,19.488-5.152a40.67,40.67,0,0,1,14.5,2.3,22.97,22.97,0,0,1,9.576,6.552l-8.288,9.408a21.131,21.131,0,0,0-6.608-4.7,22.685,22.685,0,0,0-9.745-1.9q-9.632,0-9.631,5.824a3.573,3.573,0,0,0,1.9,3.528,19.01,19.01,0,0,0,5.264,1.512l9.184,1.456a38.629,38.629,0,0,1,7.28,1.736,19.8,19.8,0,0,1,5.88,3.192,14.606,14.606,0,0,1,3.976,4.928,15.667,15.667,0,0,1,1.456,7.057,16.98,16.98,0,0,1-7,14.336Q1056.833,178.982,1043.954,178.98Z"/><path class="cls-2" d="M1113.394,178.98q-14.562,0-22.065-8.064t-7.5-21.951a38.661,38.661,0,0,1,1.961-12.713,27.255,27.255,0,0,1,5.6-9.632,23.72,23.72,0,0,1,8.847-6.048,31.441,31.441,0,0,1,11.706-2.072,31,31,0,0,1,11.647,2.072,24.281,24.281,0,0,1,8.736,5.88,26.319,26.319,0,0,1,5.544,9.24,35.636,35.636,0,0,1,1.96,12.152v4.928h-39.536v1.008a12.074,12.074,0,0,0,3.472,9.017q3.47,3.417,10.192,3.416a18.637,18.637,0,0,0,8.848-1.961,20.914,20.914,0,0,0,6.385-5.207l8.96,9.744a27.982,27.982,0,0,1-9.409,7.168Q1122.689,178.981,1113.394,178.98Zm-1.345-48.608a11.371,11.371,0,0,0-8.569,3.3,12.279,12.279,0,0,0-3.191,8.9v.9h23.3v-.9q0-5.712-3.08-8.96A11.1,11.1,0,0,0,1112.049,130.372Z"/><path class="cls-2" d="M1153.041,164.645h17.7v-56.9h-17.7V94.756h34.272v69.889h17.7v12.992h-51.969Z"/><path class="cls-2" d="M1220.241,164.645h17.7v-56.9h-17.7V94.756h34.273v69.889h17.7v12.992h-51.969Z"/><path class="cls-2" d="M1313.425,178.98q-6.274,0-9.017-2.744a8.934,8.934,0,0,1-2.744-6.551v-3.92a8.943,8.943,0,0,1,2.744-6.552q2.744-2.744,9.017-2.744t9.015,2.744a8.943,8.943,0,0,1,2.745,6.552v3.92a8.935,8.935,0,0,1-2.745,6.551Q1319.695,178.98,1313.425,178.98Z"/><path class="cls-2" d="M1350.385,177.637V119.844h13.328v8.512h.784a20.288,20.288,0,0,1,3.863-6.944,8.9,8.9,0,0,1,7.113-2.912q8.4,0,10.3,9.856h.672a21.757,21.757,0,0,1,1.68-3.808,12.725,12.725,0,0,1,2.464-3.136,10.846,10.846,0,0,1,3.472-2.128,12.957,12.957,0,0,1,4.7-.784q12.095,0,12.1,17.808v41.329h-13.328V137.988q0-4.032-1.4-5.656a4.584,4.584,0,0,0-3.64-1.624,5.169,5.169,0,0,0-3.64,1.4,5.609,5.609,0,0,0-1.512,4.312v41.217H1373.9V137.988q0-4.032-1.287-5.656a4.262,4.262,0,0,0-3.528-1.624,5.131,5.131,0,0,0-5.376,5.712v41.217Z"/><path class="cls-2" d="M1449.394,178.98q-14.562,0-22.065-8.064t-7.5-21.951a38.661,38.661,0,0,1,1.961-12.713,27.255,27.255,0,0,1,5.6-9.632,23.72,23.72,0,0,1,8.847-6.048,31.441,31.441,0,0,1,11.706-2.072,31,31,0,0,1,11.647,2.072,24.281,24.281,0,0,1,8.736,5.88,26.319,26.319,0,0,1,5.544,9.24,35.636,35.636,0,0,1,1.96,12.152v4.928h-39.536v1.008a12.074,12.074,0,0,0,3.472,9.017q3.47,3.417,10.192,3.416a18.637,18.637,0,0,0,8.848-1.961,20.914,20.914,0,0,0,6.385-5.207l8.96,9.744a27.982,27.982,0,0,1-9.409,7.168Q1458.689,178.981,1449.394,178.98Zm-1.345-48.608a11.371,11.371,0,0,0-8.569,3.3,12.279,12.279,0,0,0-3.191,8.9v.9h23.3v-.9q0-5.712-3.08-8.96A11.1,11.1,0,0,0,1448.049,130.372Z"/></g></g></svg>